<?xml version="1.0" encoding="utf-8" standalone="no"?>
<!DOCTYPE svg PUBLIC "-//W3C//DTD SVG 1.1//EN"
  "http://www.w3.org/Graphics/SVG/1.1/DTD/svg11.dtd">
<svg xmlns:xlink="http://www.w3.org/1999/xlink" width="806.072188pt" height="379.846312pt" viewBox="0 0 806.072188 379.846312" xmlns="http://www.w3.org/2000/svg" version="1.1">
 <metadata>
  <rdf:RDF xmlns:dc="http://purl.org/dc/elements/1.1/" xmlns:cc="http://creativecommons.org/ns#" xmlns:rdf="http://www.w3.org/1999/02/22-rdf-syntax-ns#">
   <cc:Work>
    <dc:type rdf:resource="http://purl.org/dc/dcmitype/StillImage"/>
    <dc:date>2026-09-17T18:51:46.668024</dc:date>
    <dc:format>image/svg+xml</dc:format>
    <dc:creator>
     <cc:Agent>
      <dc:title>Matplotlib v3.9.4, https://matplotlib.org/</dc:title>
     </cc:Agent>
    </dc:creator>
   </cc:Work>
  </rdf:RDF>
 </metadata>
 <defs>
  <style type="text/css">*{stroke-linejoin: round; stroke-linecap: butt}</style>
 </defs>
 <g id="figure_1">
  <g id="patch_1">
   <path d="M 0 379.846312 
L 806.072188 379.846312 
L 806.072188 0 
L 0 0 
z
" style="fill: #fffdf5"/>
  </g>
  <g id="axes_1">
   <g id="patch_2">
    <path d="M 73.472188 327.772875 
L 798.872187 327.772875 
L 798.872187 28.396875 
L 73.472188 28.396875 
z
" style="fill: #fffdf5"/>
   </g>
   <g id="matplotlib.axis_1">
    <g id="xtick_1">
     <g id="line2d_1">
      <path d="M 89.535824 327.772875 
L 89.535824 28.396875 
" clip-path="url(#p6efc5e88f3)" style="fill: none; stroke: #b0b0b0; stroke-opacity: 0.3; stroke-width: 0.8; stroke-linecap: square"/>
     </g>
     <g id="line2d_2">
      <defs>
       <path id="m46b26897eb" d="M 0 0 
L 0 3.5 
" style="stroke: #214b3e; stroke-width: 0.8"/>
      </defs>
      <g>
       <use xlink:href="#m46b26897eb" x="89.535824" y="327.772875" style="fill: #214b3e; stroke: #214b3e; stroke-width: 0.8"/>
      </g>
     </g>
     <g id="text_1">
      <text style="fill: #214b3e; font: 17px 'DejaVu Sans', 'Bitstream Vera Sans', 'Computer Modern Sans Serif', 'Lucida Grande', 'Verdana', 'Geneva', 'Lucid', 'Arial', 'Helvetica', 'Avant Garde', sans-serif; text-anchor: middle" x="89.535824" y="347.690219" transform="rotate(-0 89.535824 347.690219)">0</text>
     </g>
    </g>
    <g id="xtick_2">
     <g id="line2d_3">
      <path d="M 174.081278 327.772875 
L 174.081278 28.396875 
" clip-path="url(#p6efc5e88f3)" style="fill: none; stroke: #b0b0b0; stroke-opacity: 0.3; stroke-width: 0.8; stroke-linecap: square"/>
     </g>
     <g id="line2d_4">
      <g>
       <use xlink:href="#m46b26897eb" x="174.081278" y="327.772875" style="fill: #214b3e; stroke: #214b3e; stroke-width: 0.8"/>
      </g>
     </g>
     <g id="text_2">
      <text style="fill: #214b3e; font: 17px 'DejaVu Sans', 'Bitstream Vera Sans', 'Computer Modern Sans Serif', 'Lucida Grande', 'Verdana', 'Geneva', 'Lucid', 'Arial', 'Helvetica', 'Avant Garde', sans-serif; text-anchor: middle" x="174.081278" y="347.690219" transform="rotate(-0 174.081278 347.690219)">25</text>
     </g>
    </g>
    <g id="xtick_3">
     <g id="line2d_5">
      <path d="M 258.626733 327.772875 
L 258.626733 28.396875 
" clip-path="url(#p6efc5e88f3)" style="fill: none; stroke: #b0b0b0; stroke-opacity: 0.3; stroke-width: 0.8; stroke-linecap: square"/>
     </g>
     <g id="line2d_6">
      <g>
       <use xlink:href="#m46b26897eb" x="258.626733" y="327.772875" style="fill: #214b3e; stroke: #214b3e; stroke-width: 0.8"/>
      </g>
     </g>
     <g id="text_3">
      <text style="fill: #214b3e; font: 17px 'DejaVu Sans', 'Bitstream Vera Sans', 'Computer Modern Sans Serif', 'Lucida Grande', 'Verdana', 'Geneva', 'Lucid', 'Arial', 'Helvetica', 'Avant Garde', sans-serif; text-anchor: middle" x="258.626733" y="347.690219" transform="rotate(-0 258.626733 347.690219)">50</text>
     </g>
    </g>
    <g id="xtick_4">
     <g id="line2d_7">
      <path d="M 343.172188 327.772875 
L 343.172188 28.396875 
" clip-path="url(#p6efc5e88f3)" style="fill: none; stroke: #b0b0b0; stroke-opacity: 0.3; stroke-width: 0.8; stroke-linecap: square"/>
     </g>
     <g id="line2d_8">
      <g>
       <use xlink:href="#m46b26897eb" x="343.172188" y="327.772875" style="fill: #214b3e; stroke: #214b3e; stroke-width: 0.8"/>
      </g>
     </g>
     <g id="text_4">
      <text style="fill: #214b3e; font: 17px 'DejaVu Sans', 'Bitstream Vera Sans', 'Computer Modern Sans Serif', 'Lucida Grande', 'Verdana', 'Geneva', 'Lucid', 'Arial', 'Helvetica', 'Avant Garde', sans-serif; text-anchor: middle" x="343.172188" y="347.690219" transform="rotate(-0 343.172188 347.690219)">75</text>
     </g>
    </g>
    <g id="xtick_5">
     <g id="line2d_9">
      <path d="M 427.717642 327.772875 
L 427.717642 28.396875 
" clip-path="url(#p6efc5e88f3)" style="fill: none; stroke: #b0b0b0; stroke-opacity: 0.3; stroke-width: 0.8; stroke-linecap: square"/>
     </g>
     <g id="line2d_10">
      <g>
       <use xlink:href="#m46b26897eb" x="427.717642" y="327.772875" style="fill: #214b3e; stroke: #214b3e; stroke-width: 0.8"/>
      </g>
     </g>
     <g id="text_5">
      <text style="fill: #214b3e; font: 17px 'DejaVu Sans', 'Bitstream Vera Sans', 'Computer Modern Sans Serif', 'Lucida Grande', 'Verdana', 'Geneva', 'Lucid', 'Arial', 'Helvetica', 'Avant Garde', sans-serif; text-anchor: middle" x="427.717642" y="347.690219" transform="rotate(-0 427.717642 347.690219)">100</text>
     </g>
    </g>
    <g id="xtick_6">
     <g id="line2d_11">
      <path d="M 512.263097 327.772875 
L 512.263097 28.396875 
" clip-path="url(#p6efc5e88f3)" style="fill: none; stroke: #b0b0b0; stroke-opacity: 0.3; stroke-width: 0.8; stroke-linecap: square"/>
     </g>
     <g id="line2d_12">
      <g>
       <use xlink:href="#m46b26897eb" x="512.263097" y="327.772875" style="fill: #214b3e; stroke: #214b3e; stroke-width: 0.8"/>
      </g>
     </g>
     <g id="text_6">
      <text style="fill: #214b3e; font: 17px 'DejaVu Sans', 'Bitstream Vera Sans', 'Computer Modern Sans Serif', 'Lucida Grande', 'Verdana', 'Geneva', 'Lucid', 'Arial', 'Helvetica', 'Avant Garde', sans-serif; text-anchor: middle" x="512.263097" y="347.690219" transform="rotate(-0 512.263097 347.690219)">125</text>
     </g>
    </g>
    <g id="xtick_7">
     <g id="line2d_13">
      <path d="M 596.808551 327.772875 
L 596.808551 28.396875 
" clip-path="url(#p6efc5e88f3)" style="fill: none; stroke: #b0b0b0; stroke-opacity: 0.3; stroke-width: 0.8; stroke-linecap: square"/>
     </g>
     <g id="line2d_14">
      <g>
       <use xlink:href="#m46b26897eb" x="596.808551" y="327.772875" style="fill: #214b3e; stroke: #214b3e; stroke-width: 0.8"/>
      </g>
     </g>
     <g id="text_7">
      <text style="fill: #214b3e; font: 17px 'DejaVu Sans', 'Bitstream Vera Sans', 'Computer Modern Sans Serif', 'Lucida Grande', 'Verdana', 'Geneva', 'Lucid', 'Arial', 'Helvetica', 'Avant Garde', sans-serif; text-anchor: middle" x="596.808551" y="347.690219" transform="rotate(-0 596.808551 347.690219)">150</text>
     </g>
    </g>
    <g id="xtick_8">
     <g id="line2d_15">
      <path d="M 681.354006 327.772875 
L 681.354006 28.396875 
" clip-path="url(#p6efc5e88f3)" style="fill: none; stroke: #b0b0b0; stroke-opacity: 0.3; stroke-width: 0.8; stroke-linecap: square"/>
     </g>
     <g id="line2d_16">
      <g>
       <use xlink:href="#m46b26897eb" x="681.354006" y="327.772875" style="fill: #214b3e; stroke: #214b3e; stroke-width: 0.8"/>
      </g>
     </g>
     <g id="text_8">
      <text style="fill: #214b3e; font: 17px 'DejaVu Sans', 'Bitstream Vera Sans', 'Computer Modern Sans Serif', 'Lucida Grande', 'Verdana', 'Geneva', 'Lucid', 'Arial', 'Helvetica', 'Avant Garde', sans-serif; text-anchor: middle" x="681.354006" y="347.690219" transform="rotate(-0 681.354006 347.690219)">175</text>
     </g>
    </g>
    <g id="xtick_9">
     <g id="line2d_17">
      <path d="M 765.89946 327.772875 
L 765.89946 28.396875 
" clip-path="url(#p6efc5e88f3)" style="fill: none; stroke: #b0b0b0; stroke-opacity: 0.3; stroke-width: 0.8; stroke-linecap: square"/>
     </g>
     <g id="line2d_18">
      <g>
       <use xlink:href="#m46b26897eb" x="765.89946" y="327.772875" style="fill: #214b3e; stroke: #214b3e; stroke-width: 0.8"/>
      </g>
     </g>
     <g id="text_9">
      <text style="fill: #214b3e; font: 17px 'DejaVu Sans', 'Bitstream Vera Sans', 'Computer Modern Sans Serif', 'Lucida Grande', 'Verdana', 'Geneva', 'Lucid', 'Arial', 'Helvetica', 'Avant Garde', sans-serif; text-anchor: middle" x="765.89946" y="347.690219" transform="rotate(-0 765.89946 347.690219)">200</text>
     </g>
    </g>
    <g id="text_10">
     <text style="fill: #214b3e; font: 18px 'DejaVu Sans', 'Bitstream Vera Sans', 'Computer Modern Sans Serif', 'Lucida Grande', 'Verdana', 'Geneva', 'Lucid', 'Arial', 'Helvetica', 'Avant Garde', sans-serif; text-anchor: middle" x="436.172188" y="368.902875" transform="rotate(-0 436.172188 368.902875)">Number of time steps</text>
    </g>
   </g>
   <g id="matplotlib.axis_2">
    <g id="ytick_1">
     <g id="line2d_19">
      <path d="M 73.472188 319.553207 
L 798.872187 319.553207 
" clip-path="url(#p6efc5e88f3)" style="fill: none; stroke: #b0b0b0; stroke-opacity: 0.3; stroke-width: 0.8; stroke-linecap: square"/>
     </g>
     <g id="line2d_20">
      <defs>
       <path id="md6a4a502b2" d="M 0 0 
L -3.5 0 
" style="stroke: #214b3e; stroke-width: 0.8"/>
      </defs>
      <g>
       <use xlink:href="#md6a4a502b2" x="73.472188" y="319.553207" style="fill: #214b3e; stroke: #214b3e; stroke-width: 0.8"/>
      </g>
     </g>
     <g id="text_11">
      <text style="fill: #214b3e; font: 17px 'DejaVu Sans', 'Bitstream Vera Sans', 'Computer Modern Sans Serif', 'Lucida Grande', 'Verdana', 'Geneva', 'Lucid', 'Arial', 'Helvetica', 'Avant Garde', sans-serif; text-anchor: end" x="66.472188" y="326.011879" transform="rotate(-0 66.472188 326.011879)">4.82</text>
     </g>
    </g>
    <g id="ytick_2">
     <g id="line2d_21">
      <path d="M 73.472188 271.524371 
L 798.872187 271.524371 
" clip-path="url(#p6efc5e88f3)" style="fill: none; stroke: #b0b0b0; stroke-opacity: 0.3; stroke-width: 0.8; stroke-linecap: square"/>
     </g>
     <g id="line2d_22">
      <g>
       <use xlink:href="#md6a4a502b2" x="73.472188" y="271.524371" style="fill: #214b3e; stroke: #214b3e; stroke-width: 0.8"/>
      </g>
     </g>
     <g id="text_12">
      <text style="fill: #214b3e; font: 17px 'DejaVu Sans', 'Bitstream Vera Sans', 'Computer Modern Sans Serif', 'Lucida Grande', 'Verdana', 'Geneva', 'Lucid', 'Arial', 'Helvetica', 'Avant Garde', sans-serif; text-anchor: end" x="66.472188" y="277.983043" transform="rotate(-0 66.472188 277.983043)">4.84</text>
     </g>
    </g>
    <g id="ytick_3">
     <g id="line2d_23">
      <path d="M 73.472188 223.495535 
L 798.872187 223.495535 
" clip-path="url(#p6efc5e88f3)" style="fill: none; stroke: #b0b0b0; stroke-opacity: 0.3; stroke-width: 0.8; stroke-linecap: square"/>
     </g>
     <g id="line2d_24">
      <g>
       <use xlink:href="#md6a4a502b2" x="73.472188" y="223.495535" style="fill: #214b3e; stroke: #214b3e; stroke-width: 0.8"/>
      </g>
     </g>
     <g id="text_13">
      <text style="fill: #214b3e; font: 17px 'DejaVu Sans', 'Bitstream Vera Sans', 'Computer Modern Sans Serif', 'Lucida Grande', 'Verdana', 'Geneva', 'Lucid', 'Arial', 'Helvetica', 'Avant Garde', sans-serif; text-anchor: end" x="66.472188" y="229.954207" transform="rotate(-0 66.472188 229.954207)">4.86</text>
     </g>
    </g>
    <g id="ytick_4">
     <g id="line2d_25">
      <path d="M 73.472188 175.466699 
L 798.872187 175.466699 
" clip-path="url(#p6efc5e88f3)" style="fill: none; stroke: #b0b0b0; stroke-opacity: 0.3; stroke-width: 0.8; stroke-linecap: square"/>
     </g>
     <g id="line2d_26">
      <g>
       <use xlink:href="#md6a4a502b2" x="73.472188" y="175.466699" style="fill: #214b3e; stroke: #214b3e; stroke-width: 0.8"/>
      </g>
     </g>
     <g id="text_14">
      <text style="fill: #214b3e; font: 17px 'DejaVu Sans', 'Bitstream Vera Sans', 'Computer Modern Sans Serif', 'Lucida Grande', 'Verdana', 'Geneva', 'Lucid', 'Arial', 'Helvetica', 'Avant Garde', sans-serif; text-anchor: end" x="66.472188" y="181.925371" transform="rotate(-0 66.472188 181.925371)">4.88</text>
     </g>
    </g>
    <g id="ytick_5">
     <g id="line2d_27">
      <path d="M 73.472188 127.437863 
L 798.872187 127.437863 
" clip-path="url(#p6efc5e88f3)" style="fill: none; stroke: #b0b0b0; stroke-opacity: 0.3; stroke-width: 0.8; stroke-linecap: square"/>
     </g>
     <g id="line2d_28">
      <g>
       <use xlink:href="#md6a4a502b2" x="73.472188" y="127.437863" style="fill: #214b3e; stroke: #214b3e; stroke-width: 0.8"/>
      </g>
     </g>
     <g id="text_15">
      <text style="fill: #214b3e; font: 17px 'DejaVu Sans', 'Bitstream Vera Sans', 'Computer Modern Sans Serif', 'Lucida Grande', 'Verdana', 'Geneva', 'Lucid', 'Arial', 'Helvetica', 'Avant Garde', sans-serif; text-anchor: end" x="66.472188" y="133.896535" transform="rotate(-0 66.472188 133.896535)">4.90</text>
     </g>
    </g>
    <g id="ytick_6">
     <g id="line2d_29">
      <path d="M 73.472188 79.409027 
L 798.872187 79.409027 
" clip-path="url(#p6efc5e88f3)" style="fill: none; stroke: #b0b0b0; stroke-opacity: 0.3; stroke-width: 0.8; stroke-linecap: square"/>
     </g>
     <g id="line2d_30">
      <g>
       <use xlink:href="#md6a4a502b2" x="73.472188" y="79.409027" style="fill: #214b3e; stroke: #214b3e; stroke-width: 0.8"/>
      </g>
     </g>
     <g id="text_16">
      <text style="fill: #214b3e; font: 17px 'DejaVu Sans', 'Bitstream Vera Sans', 'Computer Modern Sans Serif', 'Lucida Grande', 'Verdana', 'Geneva', 'Lucid', 'Arial', 'Helvetica', 'Avant Garde', sans-serif; text-anchor: end" x="66.472188" y="85.867699" transform="rotate(-0 66.472188 85.867699)">4.92</text>
     </g>
    </g>
    <g id="ytick_7">
     <g id="line2d_31">
      <path d="M 73.472188 31.380192 
L 798.872187 31.380192 
" clip-path="url(#p6efc5e88f3)" style="fill: none; stroke: #b0b0b0; stroke-opacity: 0.3; stroke-width: 0.8; stroke-linecap: square"/>
     </g>
     <g id="line2d_32">
      <g>
       <use xlink:href="#md6a4a502b2" x="73.472188" y="31.380192" style="fill: #214b3e; stroke: #214b3e; stroke-width: 0.8"/>
      </g>
     </g>
     <g id="text_17">
      <text style="fill: #214b3e; font: 17px 'DejaVu Sans', 'Bitstream Vera Sans', 'Computer Modern Sans Serif', 'Lucida Grande', 'Verdana', 'Geneva', 'Lucid', 'Arial', 'Helvetica', 'Avant Garde', sans-serif; text-anchor: end" x="66.472188" y="37.838863" transform="rotate(-0 66.472188 37.838863)">4.94</text>
     </g>
    </g>
    <g id="text_18">
     <text style="fill: #214b3e; font: 18px 'DejaVu Sans', 'Bitstream Vera Sans', 'Computer Modern Sans Serif', 'Lucida Grande', 'Verdana', 'Geneva', 'Lucid', 'Arial', 'Helvetica', 'Avant Garde', sans-serif; text-anchor: middle" x="20.877188" y="178.084875" transform="rotate(-90 20.877188 178.084875)">Call value</text>
    </g>
   </g>
   <g id="line2d_33">
    <path d="M 106.444915 177.513563 
L 109.826733 42.004875 
L 113.208551 264.039866 
L 116.590369 63.447361 
L 119.972188 312.027249 
L 123.354006 84.730095 
L 126.735824 314.164875 
L 130.117642 103.923725 
L 133.49946 268.357875 
L 136.881278 120.885231 
L 140.263097 237.90419 
L 143.644915 135.856584 
L 147.026733 217.093587 
L 150.408551 149.133217 
L 153.790369 202.635817 
L 157.172188 160.982468 
L 160.554006 192.520773 
L 163.935824 171.628319 
L 167.317642 185.462385 
L 170.69946 181.254037 
L 174.081278 180.606514 
L 177.463097 190.008831 
L 180.844915 177.36815 
L 184.226733 198.014513 
L 187.608551 175.336157 
L 190.990369 205.371111 
L 194.372187 174.21522 
L 197.754006 212.161362 
L 201.135824 173.789215 
L 204.517642 218.454224 
L 207.89946 173.897409 
L 211.281278 224.307604 
L 214.663097 174.418577 
L 218.044915 229.770489 
L 221.426733 175.260174 
L 224.808551 234.884603 
L 228.190369 176.350794 
L 231.572187 236.19187 
L 234.954006 177.634824 
L 238.335824 229.828506 
L 241.717642 179.0686 
L 245.09946 224.310192 
L 248.481278 180.617593 
L 251.863097 219.518884 
L 255.244915 182.254334 
L 258.626733 215.356081 
L 262.008551 183.956851 
L 265.390369 211.739056 
L 268.772188 185.707494 
L 272.154006 208.597912 
L 275.535824 187.492033 
L 278.917642 205.873267 
L 282.29946 189.298961 
L 285.681278 203.514409 
L 289.063097 191.118957 
L 292.444915 201.477828 
L 295.826733 192.944457 
L 299.208551 199.726021 
L 302.590369 194.769325 
L 305.972188 198.226533 
L 309.354006 196.588584 
L 312.735824 196.951166 
L 316.117642 198.398205 
L 319.49946 195.875332 
L 322.881278 200.194932 
L 326.263097 194.977517 
L 329.644915 201.976154 
L 333.026733 194.238837 
L 336.408551 203.739781 
L 339.790369 193.642666 
L 343.172188 205.484161 
L 346.554006 193.174324 
L 349.935824 207.208002 
L 353.317642 192.820815 
L 356.69946 208.910312 
L 360.081278 192.570602 
L 363.463097 210.590347 
L 366.844915 192.413425 
L 370.226733 212.247567 
L 373.608551 192.340131 
L 376.990369 213.881608 
L 380.372187 192.342543 
L 383.754006 215.492244 
L 387.135824 192.413338 
L 390.517642 217.079372 
L 393.89946 192.545947 
L 397.281278 218.642983 
L 400.663097 192.734463 
L 404.044915 220.183151 
L 407.426733 192.973572 
L 410.808551 218.516418 
L 414.190369 193.258478 
L 417.572188 216.719823 
L 420.954006 193.58485 
L 424.335824 215.0551 
L 427.717642 193.94877 
L 431.09946 213.513093 
L 434.481278 194.346689 
L 437.863097 212.085398 
L 441.244915 194.775389 
L 444.626733 210.764289 
L 448.008551 195.231946 
L 451.390369 209.542658 
L 454.772188 195.7137 
L 458.154006 208.413954 
L 461.535824 196.218233 
L 464.917642 207.372132 
L 468.29946 196.743337 
L 471.681278 206.411607 
L 475.063097 197.287002 
L 478.444915 205.527214 
L 481.826733 197.84739 
L 485.208551 204.714168 
L 488.590369 198.422821 
L 491.972188 203.968035 
L 495.354006 199.01176 
L 498.735824 203.284699 
L 502.117642 199.612801 
L 505.49946 202.660337 
L 508.881278 200.224656 
L 512.263097 202.091392 
L 515.644915 200.846143 
L 519.026733 201.574556 
L 522.408551 201.47618 
L 525.790369 201.106744 
L 529.172187 202.113771 
L 532.554006 200.685081 
L 535.935824 202.758004 
L 539.317642 200.306883 
L 542.69946 203.408039 
L 546.081278 199.969642 
L 549.463097 204.063104 
L 552.844915 199.671015 
L 556.226733 204.72249 
L 559.608551 199.408807 
L 562.990369 205.385545 
L 566.372187 199.180966 
L 569.754006 206.051667 
L 573.135824 198.985566 
L 576.517642 206.720303 
L 579.89946 198.820802 
L 583.281278 207.390945 
L 586.663097 198.684982 
L 590.044915 208.063122 
L 593.426733 198.576515 
L 596.808551 208.736404 
L 600.190369 198.493905 
L 603.572187 209.410392 
L 606.954006 198.435749 
L 610.335824 210.08472 
L 613.717642 198.400723 
L 617.09946 210.759051 
L 620.481278 198.387583 
L 623.863097 211.433073 
L 627.244915 198.395155 
L 630.626733 212.106502 
L 634.008551 198.422336 
L 637.390369 212.779072 
L 640.772187 198.468083 
L 644.154006 213.450543 
L 647.535824 198.531412 
L 650.917642 213.8285 
L 654.29946 198.611394 
L 657.681278 213.035888 
L 661.063097 198.707153 
L 664.444915 212.281399 
L 667.826733 198.81786 
L 671.208551 211.563439 
L 674.590369 198.942732 
L 677.972188 210.880491 
L 681.354006 199.081026 
L 684.735824 210.231113 
L 688.117642 199.232043 
L 691.49946 209.613934 
L 694.881278 199.395117 
L 698.263097 209.027646 
L 701.644915 199.569619 
L 705.026733 208.471005 
L 708.408551 199.754954 
L 711.790369 207.942825 
L 715.172187 199.950557 
L 718.554006 207.441975 
L 721.935824 200.155891 
L 725.317642 206.967378 
L 728.69946 200.370449 
L 732.081278 206.518004 
L 735.463097 200.593747 
L 738.844915 206.092872 
L 742.226733 200.825329 
L 745.608551 205.691044 
L 748.990369 201.064758 
L 752.372187 205.311623 
L 755.754006 201.311622 
L 759.135824 204.953754 
L 762.517642 201.565527 
L 765.89946 204.616618 
L 765.89946 204.616618 
" clip-path="url(#p6efc5e88f3)" style="fill: none; stroke: #4c78a8; stroke-width: 1.5; stroke-linecap: square"/>
   </g>
   <g id="line2d_34">
    <path d="M 73.472188 205.860184 
L 798.872187 205.860184 
" clip-path="url(#p6efc5e88f3)" style="fill: none; stroke-dasharray: 7.4,3.2; stroke-dashoffset: 0; stroke: #f58518; stroke-width: 2"/>
   </g>
   <g id="patch_3">
    <path d="M 73.472188 327.772875 
L 73.472188 28.396875 
" style="fill: none; stroke: #809586; stroke-width: 0.8; stroke-linejoin: miter; stroke-linecap: square"/>
   </g>
   <g id="patch_4">
    <path d="M 73.472188 327.772875 
L 798.872187 327.772875 
" style="fill: none; stroke: #809586; stroke-width: 0.8; stroke-linejoin: miter; stroke-linecap: square"/>
   </g>
   <g id="text_19">
    <text style="fill: #214b3e; font: 20px 'DejaVu Sans', 'Bitstream Vera Sans', 'Computer Modern Sans Serif', 'Lucida Grande', 'Verdana', 'Geneva', 'Lucid', 'Arial', 'Helvetica', 'Avant Garde', sans-serif; text-anchor: middle" x="436.172188" y="22.396875" transform="rotate(-0 436.172188 22.396875)">Binomial-tree convergence</text>
   </g>
   <g id="legend_1">
    <g id="patch_5">
     <path d="M 590.969844 84.43125 
L 788.372187 84.43125 
Q 791.372187 84.43125 791.372187 81.43125 
L 791.372187 38.896875 
Q 791.372187 35.896875 788.372187 35.896875 
L 590.969844 35.896875 
Q 587.969844 35.896875 587.969844 38.896875 
L 587.969844 81.43125 
Q 587.969844 84.43125 590.969844 84.43125 
z
" style="fill: #fffdf5; opacity: 0.8; stroke: #cccccc; stroke-linejoin: miter"/>
    </g>
    <g id="line2d_35">
     <path d="M 593.969844 48.044531 
L 608.969844 48.044531 
L 623.969844 48.044531 
" style="fill: none; stroke: #4c78a8; stroke-width: 1.5; stroke-linecap: square"/>
    </g>
    <g id="text_20">
     <text style="fill: #214b3e; font: 15px 'DejaVu Sans', 'Bitstream Vera Sans', 'Computer Modern Sans Serif', 'Lucida Grande', 'Verdana', 'Geneva', 'Lucid', 'Arial', 'Helvetica', 'Avant Garde', sans-serif; text-anchor: start" x="635.969844" y="53.294531" transform="rotate(-0 635.969844 53.294531)">Binomial value</text>
    </g>
    <g id="line2d_36">
     <path d="M 593.969844 70.061719 
L 608.969844 70.061719 
L 623.969844 70.061719 
" style="fill: none; stroke-dasharray: 7.4,3.2; stroke-dashoffset: 0; stroke: #f58518; stroke-width: 2"/>
    </g>
    <g id="text_21">
     <text style="fill: #214b3e; font: 15px 'DejaVu Sans', 'Bitstream Vera Sans', 'Computer Modern Sans Serif', 'Lucida Grande', 'Verdana', 'Geneva', 'Lucid', 'Arial', 'Helvetica', 'Avant Garde', sans-serif; text-anchor: start" x="635.969844" y="75.311719" transform="rotate(-0 635.969844 75.311719)">Black-Scholes value</text>
    </g>
   </g>
  </g>
 </g>
 <defs>
  <clipPath id="p6efc5e88f3">
   <rect x="73.472188" y="28.396875" width="725.4" height="299.376"/>
  </clipPath>
 </defs>
</svg>
